<?xml version="1.0" encoding="UTF-8"?>
<!DOCTYPE svg PUBLIC "-//W3C//DTD SVG 1.0//EN" "http://www.w3.org/TR/2001/REC-SVG-20010904/DTD/svg10.dtd">
<!-- Creator: CorelDRAW 2021 (64-Bit) -->
<svg xmlns="http://www.w3.org/2000/svg" xml:space="preserve" width="50mm" height="11.907mm" version="1.0" style="shape-rendering:geometricPrecision; text-rendering:geometricPrecision; image-rendering:optimizeQuality; fill-rule:evenodd; clip-rule:evenodd"
viewBox="0 0 4987.77 1187.79"
 xmlns:xlink="http://www.w3.org/1999/xlink"
 xmlns:xodm="http://www.corel.com/coreldraw/odm/2003">
 <defs>
  <style type="text/css">
   <![CDATA[
    .fil0 {fill:none}
    .fil2 {fill:#5B5B5B;fill-rule:nonzero}
    .fil1 {fill:url(#id0)}
   ]]>
  </style>
  <linearGradient id="id0" gradientUnits="userSpaceOnUse" x1="331.7" y1="1186.44" x2="331.7" y2="1.44">
   <stop offset="0" style="stop-opacity:1; stop-color:#2BB32B"/>
   <stop offset="0.509804" style="stop-opacity:1; stop-color:#2A9F2A"/>
   <stop offset="1" style="stop-opacity:1; stop-color:#288A28"/>
  </linearGradient>
 </defs>
 <g id="Слой_x0020_1">
  <metadata id="CorelCorpID_0Corel-Layer"/>
  <rect class="fil0" width="4987.77" height="1187.79"/>
  <g id="_1816253441024">
   <path class="fil1" d="M663.11 803.45l0 -1.43 0 -0.24c-0.07,-5.04 -2.27,-9.37 -6.32,-12.4 -4.12,-3.07 -8.99,-3.94 -13.92,-2.49l-94.34 27.84 1.01 -2.88c2.69,-7.65 -1.35,-16 -9,-18.67 -7.62,-2.67 -15.99,1.34 -18.67,8.99l-7.98 22.79 -9.24 2.72 -5.88 -8.59 7.81 -22.3c2.68,-7.63 -1.36,-15.99 -8.99,-18.66 -7.64,-2.68 -16.01,1.35 -18.68,8.98l-0.69 1.98 -110.34 -161.13c7.12,-0.85 12.72,-6.84 12.87,-14.23 0.19,-8.08 -6.2,-14.79 -14.3,-14.98l-18.85 -0.43 -5.47 -7.98 6.31 -8.21 18.37 0.42c8.09,0.19 14.79,-6.23 14.98,-14.31 0.16,-7.09 -4.75,-13.13 -11.4,-14.63l118.99 -154.7c2.58,7.33 10.5,11.39 18.03,9.13 7.74,-2.32 12.15,-10.48 9.83,-18.25l-5.85 -19.49 6.17 -8.03 9.33 3.32 5.87 19.55c2.31,7.75 10.5,12.14 18.25,9.83 7.41,-2.21 11.76,-9.79 10.11,-17.22l80.94 28.79c4.99,1.78 10.06,1.08 14.38,-1.98 4.26,-2.99 6.6,-7.46 6.67,-12.64l0 -0.25 0 -1.49c0,-6.79 -4.08,-12.59 -10.48,-14.86l-103.22 -36.71 -41.04 -136.84c-0.87,-2.89 -0.84,-6 0.15,-8.88l7.15 -21.29 0.02 -0.08 7.12 -21.21 0.01 0 8.03 -23.87 35.98 -107.08c2.59,-7.66 -1.54,-15.97 -9.22,-18.55 -7.67,-2.58 -15.98,1.54 -18.56,9.23l-61.33 182.23c-0.98,2.87 -1.02,5.98 -0.14,8.89l1.58 5.28 5.47 18.24 1.84 6.13 0 0 8.57 28.58 20.87 69.55c-2.61,0.08 -5.22,0.49 -7.76,1.24 -2.75,0.82 -5.35,2 -7.73,3.51l-20.22 -67.43 -9.24 -30.78 -0.39 -1.27 -3.6 -12.01 0 0 -3.22 -10.76 -0.01 -0.04 -1.68 -5.58c-0.87,-2.91 -2.62,-5.47 -5.02,-7.32l-151.43 -118.43c-6.38,-4.99 -15.59,-3.86 -20.58,2.51 -4.99,6.38 -3.86,15.61 2.52,20.59l103.27 80.74 5.87 4.6 0.01 -0.01 34.94 27.33c2.38,1.86 4.14,4.42 5.02,7.33l41.07 136.93 -147.92 192.3 -144.93 -3.3c-3.02,-0.07 -5.96,-1.06 -8.39,-2.88l-18.04 -13.38 -0.06 -0.05 -17.99 -13.33 0.01 -0.01 -20.22 -15 -90.72 -67.32c-6.48,-4.83 -15.66,-3.47 -20.5,3.03 -4.83,6.5 -3.47,15.69 3.04,20.51l154.36 114.65c2.43,1.82 5.38,2.81 8.42,2.88l5.49 0.12 19.04 0.45 6.39 0.14 0 0 29.84 0.69 74.51 1.69c-0.82,2.62 -1.28,5.37 -1.35,8.17 -0.08,2.71 0.21,5.41 0.85,8.02l-72.06 -1.64 -32.13 -0.73 -1.35 -0.04 -12.52 -0.27 -11.24 -0.26 -0.03 0 -5.82 -0.14c-3.04,-0.07 -6.02,0.81 -8.52,2.51l-159.43 107.42c-6.71,4.53 -8.49,13.64 -3.97,20.35 4.53,6.71 13.66,8.49 20.37,3.96l108.69 -73.26 0 0 6.18 -4.17 -0.01 0 36.8 -24.78c2.5,-1.7 5.49,-2.58 8.53,-2.51l144.4 3.29 137.25 200.45 -46.19 131.87c-1,2.85 -2.85,5.34 -5.34,7.09l-18.3 13.02 -0.06 0.04 -18.24 12.98 -0.01 0 -20.52 14.58 -92.05 65.48c-6.6,4.68 -8.15,13.83 -3.45,20.44 4.69,6.59 13.84,8.14 20.44,3.44l156.74 -111.39c2.48,-1.76 4.34,-4.24 5.35,-7.11l1.82 -5.19 6.29 -17.98 2.11 -6.04 0.01 0 9.87 -28.16 22.88 -65.34c2.25,1.6 4.72,2.88 7.36,3.82 2.56,0.91 5.21,1.46 7.87,1.67l-22.07 63.03 -10.62 30.34 -0.45 1.26 -4.14 11.83 0.01 0 -3.73 10.6 -0.01 0.04 -1.92 5.49c-1.01,2.87 -1.09,5.98 -0.25,8.88l52.9 184.82c2.23,7.78 10.34,12.29 18.13,10.07 7.78,-2.22 12.29,-10.35 10.07,-18.15l-36.09 -126.02 0 0 -2.04 -7.16 -0.01 0 -12.2 -42.65c-0.85,-2.9 -0.76,-6.02 0.25,-8.89l46 -131.33 116.68 -34.44c6.8,-2.01 11.3,-8.02 11.3,-15.12zm-106.72 -702.19l25.8 -76.73c2.59,-7.67 10.9,-11.8 18.57,-9.24 7.67,2.59 11.8,10.9 9.24,18.58l-58.03 172.59c-2.58,7.66 -10.89,11.79 -18.56,9.22 -7.68,-2.57 -11.81,-10.89 -9.23,-18.57l6.99 -20.82 25.22 -75.03zm-160.31 107.32l24.92 19.49c6.37,4.99 7.49,14.19 2.5,20.57 -4.96,6.37 -14.19,7.5 -20.57,2.51l-143.43 -112.15c-6.37,-4.99 -7.51,-14.22 -2.52,-20.58 4.99,-6.37 14.21,-7.5 20.59,-2.53l84.76 66.29 1 0.79 17.5 13.69 0 -0.01 15.25 11.93zm-291.94 262.27l-65 -48.24c-6.49,-4.84 -7.85,-14.02 -3.04,-20.53 4.83,-6.48 14.02,-7.85 20.52,-3.03l146.21 108.51c6.49,4.83 7.85,14.02 3.04,20.51 -4.84,6.5 -14.02,7.86 -20.53,3.03l-17.64 -13.08 -63.56 -47.17zm52.53 185.62l26.24 -17.68c6.71,-4.52 15.82,-2.74 20.34,3.98 4.53,6.68 2.75,15.81 -3.96,20.33l-150.99 101.76c-6.71,4.52 -15.83,2.75 -20.34,-3.95 -4.53,-6.71 -2.75,-15.84 3.95,-20.37l89.24 -60.13 1.05 -0.7 18.41 -12.42 16.06 -10.82zm161.18 355.22l-65.98 46.91c-6.59,4.69 -15.75,3.14 -20.45,-3.45 -4.68,-6.59 -3.13,-15.75 3.45,-20.46l148.39 -105.51c6.59,-4.69 15.75,-3.14 20.44,3.44 4.7,6.61 3.15,15.76 -3.45,20.46l-17.9 12.73 -64.5 45.88zm192.77 7.4l-8.7 -30.41c-2.23,-7.79 2.27,-15.89 10.07,-18.12 7.76,-2.24 15.89,2.26 18.13,10.06l50.12 175.03c2.21,7.78 -2.27,15.91 -10.06,18.13 -7.78,2.23 -15.91,-2.27 -18.15,-10.05l-29.61 -103.46 -0.36 -1.22 -6.11 -21.36 0 0 -5.34 -18.61z"/>
   <path class="fil2" d="M925.75 448.85c-54.64,0 -105.67,25.53 -134.77,60.78l0 -209.6 -57.71 0 0 563.6 57.71 0 0 -233.41c0,-72.87 55.72,-125.39 124.04,-125.39 71.39,0 113.44,45.86 113.44,123.91l0 234.89 58.44 0 0 -242.66c0,-107.28 -61.77,-172.13 -161.14,-172.13zm575.43 75.71c-29.96,-44.39 -76.68,-75.1 -140.07,-75.1 -110.72,0 -191.35,93.58 -191.35,211.58 0,118.74 79.89,211.58 191.35,211.58 63.38,0 110.86,-31.44 140.81,-76.93l0 68.05 56.84 0 0 -406.15 -57.59 0 0 66.97zm-137.59 292.58c-82.12,0 -136.13,-66.59 -136.13,-155.36 0,-88.77 54.38,-156.84 136.49,-156.84 82.99,0 140.32,68.06 140.32,156.84 0,88.77 -57.33,155.36 -140.68,155.36zm665.7 -134.77c1.11,-7.76 1.48,-14.42 1.48,-21.08 0,-120.95 -72.5,-211.71 -185.8,-211.71 -106.91,0 -187.54,94.82 -187.54,212.82 0,117.5 87.3,210.96 198.75,210.96 61.78,0 112.82,-22.93 150.93,-59.17l-30.35 -42.06c-29.59,28.49 -69.53,47.22 -117.62,47.22 -73.73,0 -135.14,-54.99 -144.39,-136.98l314.54 0zm-313.43 -52.27c11.09,-75.35 64.36,-126.02 130.58,-126.02 67.81,0 115.53,49.57 125.52,126.02l-256.1 0zm849.3 -181.26c-46.49,0 -103.83,25.53 -131.56,77.43 -24.54,-48.82 -71.89,-77.43 -133.53,-77.43 -38.84,0 -85.08,17.76 -115.66,54.14l0 -45.39 -54.75 0 0 406.15 57.7 0 0 -238.94c0,-66.35 47.59,-120.72 106.78,-120.72 60.17,0 100.49,43.28 100.49,114.67l0 244.88 57.45 0 0 -238.95c0,-66.22 48.09,-120.59 107.16,-120.59 59.92,0 100.12,43.28 100.12,114.67l0 244.88 57.7 0 0 -251.15c0,-99.52 -59.55,-163.63 -151.91,-163.63zm566.2 75.71c-29.96,-44.39 -76.7,-75.1 -140.08,-75.1 -110.72,0 -191.36,93.58 -191.36,211.58 0,118.74 79.89,211.58 191.36,211.58 63.37,0 110.86,-31.44 140.81,-76.93l0 68.05 56.85 0 0 -406.15 -57.59 0 0 66.97zm-137.6 292.58c-82.13,0 -136.14,-66.59 -136.14,-155.36 0,-88.77 54.39,-156.84 136.5,-156.84 83,0 140.33,68.06 140.33,156.84 0,88.77 -57.33,155.36 -140.69,155.36zm378.65 46.24l0 -563.35 -57.45 0 0 563.35 57.45 0zm305.54 10.6c114.06,0 207.64,-93.33 207.64,-211.7 0,-118.62 -93.58,-212.7 -206.89,-212.7 -113.81,0 -207.39,94.08 -207.39,212.7 0,118.37 93.21,211.7 206.64,211.7zm1.12 -55.24c-82,0 -150.06,-67.68 -150.06,-156.83 0,-88.66 68.06,-157.08 150.06,-157.08 80.76,0 148.82,68.42 148.82,157.08 0,89.14 -68.05,156.83 -148.82,156.83zm609.35 -294.68c-29.96,-43.65 -77.43,-75.22 -140.8,-75.22 -111.47,0 -191.36,92.59 -191.36,198.88 0,112.82 80.64,198.27 191.36,198.27 63.75,0 110.85,-28.86 140.44,-69.92l-0.37 8.13 0 17.03c0,65.1 -32.55,147.72 -147.46,147.72 -45.51,0 -94.08,-11.48 -131.07,-31.07l-22.93 49.57c38.1,21.2 99.25,36.74 157.7,36.74 143.15,0 201.35,-100.49 201.35,-201.11l0 -345.73 -56.85 0 0 66.71zm-137.97 266.45c-82.11,0 -136.49,-59.54 -136.49,-143.15 0,-77.06 54.01,-142.53 136.13,-142.53 83.35,0 140.68,65.47 140.68,145.48 0,80.65 -57.33,140.2 -140.32,140.2zm349.56 -415.03c24.04,0 40.69,-18.49 40.69,-38.47 0,-19.97 -16.65,-39.21 -40.69,-39.21 -23.67,0 -39.95,19.24 -39.95,39.21 0,19.97 16.65,38.47 39.95,38.47zm28.73 487.53l0 -406.15 -57.46 0 0 406.15 57.46 0zm310.35 10.97c59.55,0 111.34,-23.3 148.7,-59.3l-29.96 -41.06c-31.07,28.48 -69.55,46.61 -116.52,46.61 -85.08,0 -156.1,-68.43 -156.1,-158.44 0,-89.89 71.02,-159.05 155.73,-159.05 45.88,0 84.33,17.75 116.15,47.33l30.7 -41.42c-37.73,-36.63 -89.14,-59.18 -149.06,-59.18 -118.37,0 -210.96,94.33 -210.96,212.32 0,117.75 92.22,212.2 211.33,212.2z"/>
  </g>
 </g>
</svg>
